HIERARCHY
ROOT RootJoint
{
    OFFSET   0.000000   0.000000   0.000000
    CHANNELS 6 Xposition Yposition Zposition Xrotation Yrotation Zrotation
    JOINT pelvis_lowerback
    {
        OFFSET   0.000000   0.093605   0.000000
        CHANNELS 3 Xrotation Yrotation Zrotation
        JOINT lowerback_torso
        {
            OFFSET   0.000000   0.100000   0.000000
            CHANNELS 3 Xrotation Yrotation Zrotation
            JOINT torso_head
            {
                OFFSET   0.000000   0.282350   0.000000
                CHANNELS 3 Xrotation Yrotation Zrotation
                End Site
                {
                    OFFSET   0.000000   0.192650   0.000000
                }
            }
            JOINT rTorso_Clavicle
            {
                OFFSET  -0.001000   0.157500   0.000000
                CHANNELS 3 Xrotation Yrotation Zrotation
                JOINT rShoulder
                {
                    OFFSET  -0.117647   0.000000   0.000000
                    CHANNELS 3 Xrotation Yrotation Zrotation
                    JOINT rElbow
                    {
                        OFFSET  -0.245000   0.000000   0.000000
                        CHANNELS 3 Xrotation Yrotation Zrotation
                        JOINT rWrist
                        {
                            OFFSET  -0.240000   0.000000   0.000000
                            CHANNELS 3 Xrotation Yrotation Zrotation
                            End Site
                            {
                                OFFSET  -0.116353  -0.002500   0.000000
                            }
                        }
                    }
                }
            }
            JOINT lTorso_Clavicle
            {
                OFFSET   0.001000   0.157500   0.000000
                CHANNELS 3 Xrotation Yrotation Zrotation
                JOINT lShoulder
                {
                    OFFSET   0.117647   0.000000   0.000000
                    CHANNELS 3 Xrotation Yrotation Zrotation
                    JOINT lElbow
                    {
                        OFFSET   0.245000   0.000000   0.000000
                        CHANNELS 3 Xrotation Yrotation Zrotation
                        JOINT lWrist
                        {
                            OFFSET   0.240000   0.000000   0.000000
                            CHANNELS 3 Xrotation Yrotation Zrotation
                            End Site
                            {
                                OFFSET   0.116353  -0.002500   0.000000
                            }
                        }
                    }
                }
            }
        }
    }
    JOINT rHip
    {
        OFFSET  -0.100000  -0.051395   0.000000
        CHANNELS 3 Xrotation Yrotation Zrotation
        JOINT rKnee
        {
            OFFSET   0.000000  -0.410000   0.000000
            CHANNELS 3 Xrotation Yrotation Zrotation
            JOINT rAnkle
            {
                OFFSET   0.000000  -0.390000   0.000000
                CHANNELS 3 Xrotation Yrotation Zrotation
                JOINT rToeJoint
                {
                    OFFSET   0.000000  -0.050000   0.130000
                    CHANNELS 3 Xrotation Yrotation Zrotation
                    End Site
                    {
                        OFFSET  -0.010000   0.002000   0.060000
                    }
                }
            }
        }
    }
    JOINT lHip
    {
        OFFSET   0.100000  -0.051395   0.000000
        CHANNELS 3 Xrotation Yrotation Zrotation
        JOINT lKnee
        {
            OFFSET   0.000000  -0.410000   0.000000
            CHANNELS 3 Xrotation Yrotation Zrotation
            JOINT lAnkle
            {
                OFFSET   0.000000  -0.390000   0.000000
                CHANNELS 3 Xrotation Yrotation Zrotation
                JOINT lToeJoint
                {
                    OFFSET   0.000000  -0.050000   0.130000
                    CHANNELS 3 Xrotation Yrotation Zrotation
                    End Site
                    {
                        OFFSET   0.010000   0.002000   0.060000
                    }
                }
            }
        }
    }
}
MOTION
Frames: 17
Frame Time:   0.008333
 -2.418729   0.920630   4.518240   2.220257 -12.946511   3.688579   2.073564   6.533257  -3.841061   2.197712   2.492053  -0.528060  -5.006871  -3.985549  -0.906543   2.414176  -1.649152  -0.243198   5.623337   9.276898  52.399234 179.938240  73.710124 -179.950821  -0.313685   3.919737  -6.286830   9.659725   7.561244  -1.883077  23.475574  -0.967617 -50.160483 -179.972144 -82.762570 -179.976375  -1.440933  -4.855564   4.523120  14.576437  -5.271657  -8.479199  22.887395   0.002452   0.002058  18.665255  -4.407425   2.508162 -28.135093  -0.004453   0.015877 -34.242487   2.046147  -1.947003  46.117219  -0.069228   0.011715 -14.387819   6.717976   0.199551  -3.851741   0.000970   0.000128
 -2.419581   0.922042   4.532857   2.114727 -12.772177   3.273417   1.939221   6.426930  -3.859688   2.361247   2.498239  -0.541009  -4.865583  -4.050170  -0.790917   2.534623  -1.757876  -0.294934   5.921718   9.284815  52.482839 179.949018  73.456447 -179.959740  -0.411005   4.274150  -6.261380   9.703144   7.748873  -1.820543  23.482603  -0.807528 -50.075903 -179.977842 -82.799686 -179.981122  -1.541820  -4.978753   4.532434  13.884461  -5.213028  -8.391566  26.198437   0.009163  -0.001238  18.074428  -4.274605   2.662423 -25.852827   0.001471   0.012582 -33.111156   1.678620  -2.338145  44.093776  -0.063510   0.013854 -15.324078   6.742725   0.171232  -3.771250   0.001325  -0.000023
 -2.420563   0.922639   4.547986   1.902185 -12.565285   2.804911   1.739022   6.260852  -3.859338   2.533464   2.448056  -0.495948  -4.719353  -4.099328  -0.672480   2.717611  -1.904335  -0.251665   6.263069   9.277533  52.606308 179.959059  73.250703 -179.967909  -0.524698   4.475557  -6.161273   9.715701   7.897432  -1.754303  23.462473  -0.663812 -49.973894 -179.982572 -82.852042 -179.985091  -1.642805  -5.018105   4.573886  13.290502  -5.180532  -8.310050  29.859145   0.016224  -0.005477  17.517607  -4.154348   2.806442 -23.935698   0.006708   0.009029 -31.852086   1.239116  -2.663103  42.355945  -0.057314   0.014613 -16.196487   6.767850   0.148385  -3.719597   0.001373  -0.000092
 -2.421575   0.922434   4.563442   1.675965 -12.345782   2.320677   1.466229   6.058433  -3.837686   2.652169   2.349984  -0.424916  -4.589571  -4.145131  -0.561604   2.929468  -2.074387  -0.168662   6.618836   9.260951  52.744753 179.967957  73.068803 -179.975189  -0.644838   4.590875  -6.014372   9.713552   8.022932  -1.685138  23.430731  -0.534609 -49.870016 -179.986429 -82.900257 -179.988373  -1.738861  -5.053351   4.632846  12.759740  -5.154594  -8.255111  33.590692   0.023012  -0.010354  17.002939  -4.043740   2.942117 -22.175817   0.011311   0.005406 -30.568090   0.805771  -2.927652  40.797111  -0.051677   0.014267 -17.007914   6.792694   0.127333  -3.669229   0.001382  -0.000121
 -2.422579   0.921449   4.579107   1.465102 -12.123902   1.832329   1.134134   5.832617  -3.796700   2.710799   2.218038  -0.340582  -4.478531  -4.188492  -0.457779   3.148537  -2.256067  -0.072546   6.970583   9.237134  52.883609 179.975598  72.903419 -179.981505  -0.765016   4.665541  -5.861288   9.698772   8.127492  -1.616350  23.389137  -0.420196 -49.767892 -179.989532 -82.942236 -179.991041  -1.828819  -5.106412   4.701893  12.292543  -5.131792  -8.229234  37.236062   0.028896  -0.015667  16.525660  -3.942164   3.069782 -20.559938   0.015019   0.001784 -29.301366   0.388995  -3.140236  39.375145  -0.046639   0.013360 -17.763605   6.816950   0.107765  -3.620178   0.001366  -0.000125
 -2.423562   0.919712   4.594893   1.283347 -11.907009   1.344520   0.755803   5.593491  -3.740445   2.714747   2.063482  -0.249403  -4.384406  -4.229509  -0.359866   3.363708  -2.441135   0.025169   7.308919   9.208470  53.016737 179.981999  72.750969 -179.986846  -0.882199   4.722264  -5.721931   9.672799   8.212775  -1.550246  23.338856  -0.320055 -49.668945 -179.991998 -82.978301 -179.993174  -1.912715  -5.180147   4.777589  11.892326  -5.111100  -8.229553  40.681734   0.033375  -0.021044  16.082523  -3.848992   3.189821 -19.078349   0.017708  -0.001719 -28.075352  -0.009196  -3.306699  38.067554  -0.042137   0.012227 -18.467871   6.840467   0.089646  -3.573025   0.001331  -0.000113
 -2.424520   0.917242   4.610725   1.133440 -11.702526   0.859536   0.348683   5.349064  -3.674201   2.673969   1.895523  -0.155637  -4.304967  -4.268183  -0.267226   3.568659  -2.623039   0.119161   7.628585   9.177556  53.141881 179.987244  72.609216 -179.991251  -0.995057   4.772732  -5.603596   9.636912   8.280366  -1.487492  23.280933  -0.233258 -49.573840 -179.993926 -83.008854 -179.994844  -1.990877  -5.273523   4.858804  11.543778  -5.089253  -8.255238  43.917011   0.036363  -0.026266  15.669459  -3.763519   3.302543 -17.722468   0.019409  -0.004995 -26.901003  -0.388014  -3.432617  36.860628  -0.038096   0.011076 -19.124463   6.863183   0.072946  -3.528211   0.001281  -0.000096
 -2.425177   0.913909   4.626425   0.706356 -11.406846   0.449261   0.321611   5.025613  -3.665482   2.606708   1.737888  -0.154241  -4.285245  -4.189262  -0.110317   3.705636  -2.794820   0.349174   7.914901   9.028303  53.233416 179.984706  72.954136 -179.987794  -1.011572   5.193633  -5.570076   9.596023   8.201110  -1.439990  22.952311  -0.351120 -49.345327 -179.995721 -83.251478 -179.996595  -2.028336  -5.383130   4.982167  11.272645  -5.248192  -8.479846  47.684502   0.039000  -0.036644  14.420333  -3.773447   3.398738 -16.489667   0.020043  -0.009628 -25.717441  -0.811914  -3.803918  36.821757  -0.030653   0.008885 -19.945875   6.771042   0.589417  -3.347933   0.001068  -0.000406
 -2.425745   0.909866   4.642159   0.257010 -11.094258   0.058236   0.289223   4.680934  -3.658908   2.554027   1.543653  -0.151032  -4.264842  -4.107737   0.037194   3.858176  -2.956941   0.615319   8.204517   8.874814  53.328683 179.981403  73.332700 -179.983974  -1.048056   5.347207  -5.559905   9.512174   8.061560  -1.411886  22.601990  -0.495755 -49.117659 -179.996606 -83.491044 -179.997521  -2.064566  -5.439145   5.090355  10.971948  -5.382793  -8.733916  51.524863   0.040627  -0.045521  13.251424  -3.787203   3.487125 -15.406914   0.020064  -0.012767 -24.497652  -1.210356  -4.224991  37.028122  -0.023600   0.006643 -20.705837   6.678927   1.070406  -3.205211   0.000943  -0.000554
 -2.426278   0.905119   4.657892  -0.171354 -10.778860  -0.335997   0.229584   4.320743  -3.638260   2.488351   1.321712  -0.136251  -4.247873  -4.031346   0.175820   4.019113  -3.118434   0.885588   8.491036   8.727141  53.427570 179.978219  73.698109 -179.980484  -1.092798   5.394987  -5.535941   9.411868   7.901367  -1.392999  22.254653  -0.650207 -48.904440 -179.997063 -83.711564 -179.998028  -2.097642  -5.507017   5.182724  10.627859  -5.491584  -8.978432  55.361581   0.040788  -0.052938  12.160832  -3.801891   3.568792 -14.416752   0.019629  -0.014952 -23.253878  -1.589744  -4.644073  37.296964  -0.017604   0.004716 -21.411421   6.587311   1.517482  -3.073664   0.000887  -0.000629
 -2.426802   0.899692   4.673628  -0.559597 -10.459305  -0.740098   0.133476   3.951196  -3.601080   2.403034   1.080489  -0.109270  -4.235458  -3.960685   0.306892   4.183450  -3.281936   1.150219   8.770874   8.584355  53.525940 179.975461  74.043465 -179.977507  -1.139304   5.405586  -5.505734   9.305439   7.734561  -1.379474  21.918768  -0.806556 -48.705637 -179.997412 -83.913989 -179.998407  -2.127052  -5.595070   5.261782  10.283188  -5.589025  -9.196427  58.996164   0.039404  -0.058261  11.145707  -3.816966   3.644501 -13.510098   0.018770  -0.016357 -22.008824  -1.955201  -5.043968  37.583103  -0.012664   0.003147 -22.067717   6.496817   1.933205  -2.950813   0.000877  -0.000652
 -2.427321   0.893590   4.689328  -0.902206 -10.147705  -1.151682   0.010026   3.583505  -3.552774   2.298250   0.831102  -0.073729  -4.228474  -3.895234   0.430793   4.344972  -3.443360   1.403420   9.039024   8.447450  53.621220 179.973337  74.367428 -179.975189  -1.185267   5.403332  -5.479178   9.196365   7.566729  -1.367889  21.596438  -0.960961 -48.519930 -179.997697 -84.099678 -179.998694  -2.153071  -5.701227   5.335120   9.934368  -5.674722  -9.393537  62.401957   0.036829  -0.061819  10.198339  -3.832143   3.714657 -12.683630   0.017578  -0.017158 -20.780729  -2.306645  -5.420198  37.873161  -0.008655   0.001872 -22.678518   6.408090   2.319892  -2.836173   0.000894  -0.000649
 -2.427839   0.886813   4.704962  -1.201005  -9.848678  -1.569139  -0.130299   3.223491  -3.497912   2.179517   0.580688  -0.032733  -4.226063  -3.834546   0.547681   4.499892  -3.599208   1.642834   9.292629   8.317445  53.712130 179.971939  74.670290 -179.973596  -1.229763   5.397962  -5.460162   9.086580   7.400535  -1.356311  21.288367  -1.111429 -48.345917 -179.997898 -84.270089 -179.998870  -2.176037  -5.821857   5.406936   9.579857  -5.749568  -9.573691  65.582903   0.033483  -0.063887   9.313589  -3.847247   3.779669 -11.931086   0.016173  -0.017486 -19.580641  -2.644821  -5.772509  38.161834  -0.005431   0.000835 -23.247167   6.321522   2.679644  -2.729604   0.000925  -0.000634
 -2.427891   0.879379   4.719239  -1.428174  -9.441989  -1.834015   0.132474   2.867669  -3.541050   1.893225   0.302958  -0.083877  -4.419244  -3.772616   0.684435   4.524600  -3.758112   1.950776   9.515670   8.109495  53.850578 179.956583  75.655031 -179.959258  -1.206045   5.931233  -5.582677   8.850796   7.087153  -1.386378  20.547838  -1.481371 -48.116064 -179.997348 -84.588703 -179.998483  -2.160634  -5.832556   5.504229   8.776141  -5.878313  -9.879712  69.049304   0.030136  -0.065963   8.532215  -3.934164   3.781339 -11.210605   0.015261  -0.017807 -18.671831  -2.838061  -6.380906  38.866187   0.000401  -0.000470 -24.447051   5.919927   3.300124  -2.534523   0.001001  -0.000962
 -2.427782   0.871334   4.732992  -1.633622  -8.956886  -2.071189   0.493588   2.472982  -3.591730   1.676561  -0.024019  -0.145328  -4.598932  -3.710190   0.808356   4.557081  -3.881749   2.281064   9.733167   7.906727  53.984453 179.946252  76.648158 -179.950265  -1.212706   6.102263  -5.745478   8.535359   6.678361  -1.441519  19.766325  -1.895337 -47.899366 -179.993260 -84.879653 -179.994511  -2.140267  -5.878077   5.652017   7.846533  -5.987367 -10.138751  72.326504   0.027817  -0.064199   7.806208  -4.016075   3.781243 -10.551295   0.014308  -0.017134 -17.795070  -2.999652  -7.081078  39.600243   0.005921  -0.001396 -25.570493   5.528659   3.869488  -2.423280   0.001063  -0.000933
 -2.427291   0.865297   4.746545  -2.124256  -8.664754  -1.824086   1.135430   2.125963  -4.066131   1.638223  -0.315923  -0.382722  -4.755359  -3.647998   0.911326   4.597496  -3.916371   2.812439   9.937951   7.760897  54.186892 179.938640  77.641137 -179.945791  -1.241798   5.959187  -5.760886   8.185381   6.210280  -1.614147  18.987263  -2.314724 -47.697563 -179.980572 -85.207035 -179.981610  -2.134786  -5.744179   5.863938   6.970632  -5.914526 -10.817870  75.279896   0.024362  -0.057976   7.130424  -4.097651   3.775006  -9.921854   0.012947  -0.015595 -17.504590  -3.345008  -8.011576  41.717961   0.009663  -0.010531 -26.358479   5.043560   4.605367  -2.227520   0.000264  -0.002302
 -2.426745   0.859878   4.760393  -2.644023  -8.437470  -1.628320   1.708447   1.765611  -4.402061   1.664282  -0.616102  -0.625011  -4.873708  -3.589957   0.991250   4.669888  -3.976820   3.270465  10.161576   7.622136  54.378321 179.929853  78.557907 -179.939375  -1.278381   5.780193  -5.674316   7.877429   5.774708  -1.803622  18.277553  -2.736446 -47.559257 -179.968929 -85.489787 -179.969823  -2.131451  -5.660989   5.915371   6.034558  -5.833325 -11.305458  77.972333   0.018371  -0.049323   6.494026  -4.173244   3.766813  -9.365746   0.010858  -0.013477 -16.888913  -3.506533  -8.782336  43.389683   0.012100  -0.013393 -27.156214   4.674075   5.135330  -2.124856   0.000066  -0.002382
